{"title":"200 M.P.H 2011 DVDRiP AC3 XViD-U.S.M","uid":6785620,"size":1494010725,"categoryP":"video","categoryS":"movies","magnet":"?xt=urn:btih:5c7228bec71f94c2eb05270b6978b361608006db&amp;dn=200+M.P.H+2011+DVDRiP+AC3+XViD-U.S.M&amp;tr=udp%3A%2F%2Ftracker.openbittorrent.com%3A80&amp;tr=udp%3A%2F%2Fopen.demonii.com%3A1337&amp;tr=udp%3A%2F%2Ftracker.coppersurfer.tk%3A6969&amp;tr=udp%3A%2F%2Fexodus.desync.com%3A6969","seeders":1,"leechers":0,"uploader":"Test_Verify","files":5,"time":1320077036,"description":"    200 M.P.H 2011 DVDRiP AC3 XViD - U.S.M\n\n\nSOURCES:\n\n200mph.2011.DVD5\n\nIMDB:\n &lt;a href=&quot;\nhttp://www.imdb.com/title/tt1823051/&quot; rel=&quot;nofollow&quot; target=&quot;_NEW&quot;&gt;\nhttp://www.imdb.com/title/tt1823051/&lt;/a&gt;\n\nVideo\nID                               : 0\nFormat                           : MPEG-4 Visual\nFormat profile                   : Advanced Simple@L5\nFormat settings, BVOP            : 2\nFormat settings, QPel            : No\nFormat settings, GMC             : No warppoints\nFormat settings, Matrix          : Default (MPEG)\nMuxing mode                      : Packed bitstream\nCodec ID                         : XVID\nCodec ID/Hint                    : XviD\nDuration                         : 1h 28mn\nBit rate                         : 2 026 Kbps\nWidth                            : 720 pixels\nHeight                           : 400 pixels\nDisplay aspect ratio             : 16:9\nFrame rate                       : 25.000 fps\nColor space                      : YUV\nChroma subsampling               : 4:2:0\nBit depth                        : 8 bits\nScan type                        : Progressive\nCompression mode                 : Lossy\nBits/(Pixel*Frame)               : 0.281\nStream size                      : 1.25 GiB (91%)\nWriting library                  : XviD 64\n\nAudio\nID                               : 1\nFormat                           : AC-3\nFormat/Info                      : Audio Coding 3\nMode extension                   : CM (complete main)\nCodec ID                         : 2000\nDuration                         : 1h 28mn\nBit rate mode                    : Constant\nBit rate                         : 192 Kbps\nChannel(s)                       : 2 channels\nChannel positions                : Front: L R\nSampling rate                    : 48.0 KHz\nBit depth                        : 16 bits\nCompression mode                 : Lossy\nStream size                      : 121 MiB (9%)\nAlignment                        : Aligned on interleaves\nInterleave, duration             : 40 ms (1.00 video frame)\nInterleave, preload duration     : 512 ms\n\nWORKDONE:\n\nSimple script made to crop,resize,sharpen the encode,nothing else done.\nStripped english ac3 track off the dvd and remuxed to the encode.\nCheck sample for Q.\n\nSCREENIES:\n\n[IMG]http://i.imgur.com/g9tLm.png[/IMG]\n[IMG]http://i.imgur.com/GwqDY.png[/IMG]\n[IMG]http://i.imgur.com/8GyQa.png[/IMG]\n[IMG]http://i.imgur.com/G6h55.png[/IMG]","torrent":{"xt":"urn:btih:5c7228bec71f94c2eb05270b6978b361608006db","amp;dn":"200+M.P.H+2011+DVDRiP+AC3+XViD-U.S.M","amp;tr":["udp%3A%2F%2Ftracker.openbittorrent.com%3A80","udp%3A%2F%2Fopen.demonii.com%3A1337","udp%3A%2F%2Ftracker.coppersurfer.tk%3A6969","udp%3A%2F%2Fexodus.desync.com%3A6969"],"infoHash":"5c7228bec71f94c2eb05270b6978b361608006db","infoHashBuffer":{"type":"Buffer","data":[92,114,40,190,199,31,148,194,235,5,39,11,105,120,179,97,96,128,6,219]},"announce":[],"urlList":[]}}